<svg width="120" height="60" viewBox="0 0 120 60" fill="none" xmlns="http://www.w3.org/2000/svg">
<path fill-rule="evenodd" clip-rule="evenodd" d="M0 21C0 9.40202 9.40201 0 21 0H99C110.598 0 120 9.40202 120 21V39C120 50.598 110.598 60 99 60H21C9.40201 60 0 50.598 0 39V21ZM96.0317 19.104C97.9997 18.928 99.7997 19.496 101.432 20.808C101.784 21.08 102.2 21.496 102.68 22.056C103.736 23.368 104.384 24.952 104.624 26.808C104.688 27.336 104.696 27.96 104.648 28.68C104.632 28.728 104.624 28.776 104.624 28.824C104.4 30.712 103.728 32.328 102.608 33.672C101.184 35.352 99.4397 36.296 97.3757 36.504C96.7357 36.552 96.1037 36.528 95.4797 36.432C93.4477 36.096 91.7757 35.072 90.4637 33.36C89.5997 32.208 89.0477 30.904 88.8077 29.448C88.7277 29.048 88.6877 28.512 88.6877 27.84C88.6877 27.2 88.7357 26.632 88.8317 26.136C89.0077 25.08 89.3517 24.112 89.8637 23.232C90.0877 22.848 90.3517 22.456 90.6557 22.056C91.1517 21.48 91.5757 21.064 91.9277 20.808C93.1277 19.816 94.4957 19.248 96.0317 19.104ZM97.3517 20.328C96.8877 20.28 96.5117 20.272 96.2237 20.304C94.7677 20.48 93.6317 21.248 92.8157 22.608C92.7197 22.768 92.6317 22.936 92.5517 23.112C92.1517 23.944 91.8958 24.976 91.7838 26.208C91.7197 26.752 91.7117 27.544 91.7597 28.584C91.7757 28.712 91.7838 28.808 91.7838 28.872C91.8958 30.216 92.1517 31.344 92.5517 32.256C93.2557 33.84 94.3197 34.816 95.7437 35.184C95.8077 35.2 95.8797 35.216 95.9597 35.232C96.4237 35.328 96.8957 35.328 97.3757 35.232C98.8317 34.944 99.9357 34.016 100.688 32.448L100.784 32.256C101.184 31.344 101.44 30.216 101.552 28.872C101.616 28.296 101.624 27.496 101.576 26.472C101.56 26.36 101.552 26.272 101.552 26.208C101.44 24.736 101.096 23.536 100.52 22.608C99.7517 21.328 98.6957 20.568 97.3517 20.328ZM70.1999 19.608V20.28V20.952H70.8719C71.9919 20.952 72.5839 21.008 72.6479 21.12V34.488C72.5839 34.6 71.9919 34.656 70.8719 34.656H70.1999V35.328V36H70.4639C70.4479 36 71.0799 35.984 72.3599 35.952C73.4479 35.936 74.5439 35.936 75.6479 35.952C76.9279 35.984 77.5599 36 77.5439 36H77.8079V35.328V34.656H77.1359C76.0159 34.656 75.4239 34.6 75.3599 34.488C75.3439 34.472 75.3359 33.448 75.3359 31.416V28.368H76.8479C77.8559 28.384 78.4159 28.408 78.5279 28.44C78.9599 28.552 79.3199 28.768 79.6079 29.088C79.9279 29.408 80.1599 29.848 80.3039 30.408C80.3199 30.488 80.3359 31.048 80.3519 32.088C80.3679 33.112 80.3919 33.688 80.4239 33.816C80.6959 35 81.4799 35.8 82.7759 36.216C82.8399 36.232 82.9119 36.248 82.9919 36.264C84.0319 36.536 84.8479 36.608 85.4399 36.48C85.6639 36.432 85.8799 36.344 86.0879 36.216C86.7919 35.736 87.1759 34.984 87.2399 33.96V33.672C87.2079 33.544 87.0079 33.48 86.6399 33.48C86.4319 33.48 86.2959 33.488 86.2319 33.504C86.1199 33.536 86.0559 33.672 86.0399 33.912C85.9919 34.68 85.7679 35.152 85.3679 35.328C85.3039 35.36 85.1919 35.376 85.0319 35.376C84.9359 35.376 84.8479 35.368 84.7679 35.352C84.1599 35.24 83.7439 34.624 83.5199 33.504C83.4879 33.408 83.4079 32.928 83.2799 32.064L83.0399 30.744C82.8159 29.624 82.1439 28.72 81.0239 28.032L80.8319 27.936L81.0959 27.816C81.7839 27.56 82.3919 27.208 82.9199 26.76C83.6399 26.168 84.0879 25.472 84.2639 24.672C84.3279 24.256 84.3279 23.864 84.2639 23.496C84.1039 22.76 83.7199 22.088 83.1119 21.48C82.2319 20.6 81.0639 20.024 79.6079 19.752C79.4799 19.736 79.3999 19.72 79.3679 19.704C79.0959 19.656 77.4639 19.624 74.4719 19.608H70.1999ZM75.6719 20.976H78.4319C79.4239 21.04 80.1599 21.312 80.6399 21.792C80.9119 22.08 81.0879 22.464 81.1679 22.944C81.1999 23.104 81.2159 23.472 81.2159 24.048C81.2319 24.784 81.1839 25.312 81.0719 25.632C80.9599 25.936 80.8079 26.184 80.6159 26.376C80.2159 26.776 79.5919 27.048 78.7439 27.192C78.6319 27.208 78.0159 27.224 76.8959 27.24H75.3359V24.192C75.3359 22.16 75.3519 21.128 75.3839 21.096C75.4159 21.032 75.5119 20.992 75.6719 20.976ZM53.6716 19.896V19.752H60.9916H68.3356V19.896C68.3516 19.928 68.4316 20.88 68.5756 22.752C68.6876 24.544 68.7596 25.496 68.7916 25.608V25.752H68.1916C67.7916 25.752 67.5916 25.744 67.5916 25.728L67.5436 25.152C67.4316 23.776 67.2396 22.824 66.9676 22.296C66.6796 21.736 66.1036 21.368 65.2396 21.192C64.8556 21.128 64.2796 21.096 63.5116 21.096C62.8556 21.112 62.4956 21.16 62.4316 21.24L62.3836 21.288V27.888L62.4076 34.464L62.5036 34.536C62.6476 34.6 63.3196 34.64 64.5196 34.656H65.8636V35.328V36H65.5516L63.1276 35.952C61.7196 35.936 60.3116 35.936 58.9036 35.952L56.4796 36H56.1676V35.328V34.656H57.5116C58.7116 34.64 59.3836 34.6 59.5276 34.536L59.6476 34.464V27.888V21.288L59.5996 21.24C59.5356 21.16 59.2316 21.112 58.6876 21.096H58.5196C57.7356 21.096 57.1596 21.128 56.7916 21.192C56.1036 21.336 55.5916 21.6 55.2556 21.984C54.9356 22.352 54.7036 23.096 54.5596 24.216C54.4636 24.792 54.4156 25.296 54.4156 25.728C54.4156 25.744 54.2156 25.752 53.8156 25.752H53.2156V25.608C53.2316 25.576 53.3116 24.624 53.4556 22.752C53.5676 20.96 53.6396 20.008 53.6716 19.896ZM37.8796 19.608V20.28V20.952H38.5516C39.6716 20.952 40.2636 21.008 40.3276 21.12V34.488C40.2636 34.6 39.6716 34.656 38.5516 34.656H37.8796V35.328V36H44.2636H50.6476V35.88C50.6636 35.848 50.7756 34.752 50.9836 32.592C51.1916 30.448 51.3036 29.36 51.3196 29.328V29.208H50.7196H50.1196V29.328C50.1036 29.376 50.0796 29.568 50.0476 29.904C49.9036 31.168 49.6636 32.112 49.3276 32.736C48.7676 33.856 47.7116 34.488 46.1596 34.632C46.0956 34.632 45.9836 34.64 45.8236 34.656C44.3036 34.688 43.4556 34.672 43.2796 34.608C43.1996 34.56 43.1516 34.528 43.1356 34.512L43.0876 34.464V27.816C43.0876 23.368 43.1036 21.136 43.1356 21.12C43.2316 21.024 43.8396 20.968 44.9596 20.952H46.1596V20.28V19.608H45.8716C45.8876 19.608 45.1516 19.624 43.6636 19.656C42.3836 19.672 41.1836 19.672 40.0636 19.656L38.1436 19.608H37.8796ZM29.0637 20.28V19.608H29.3277L31.2957 19.656C32.4317 19.672 33.5677 19.672 34.7037 19.656L36.6717 19.608H36.9357V20.28V20.952H36.2397C35.3277 20.952 34.7757 20.976 34.5837 21.024L34.4157 21.096L34.3677 21.144V27.792V34.464L34.4157 34.512L34.5837 34.584C34.7757 34.632 35.3277 34.656 36.2397 34.656H36.9357V35.328V36H36.6717L34.7037 35.952C33.5677 35.936 32.4317 35.936 31.2957 35.952L29.3277 36H29.0637V35.328V34.656H29.7597C30.6717 34.656 31.2237 34.632 31.4157 34.584L31.5837 34.512L31.6317 34.464V27.792V21.144L31.5837 21.096L31.4157 21.024C31.2237 20.976 30.6717 20.952 29.7597 20.952H29.0637V20.28ZM13.528 19.68V20.352V21.024H14.2C15.32 21.024 15.912 21.08 15.976 21.192V34.488C15.912 34.6 15.32 34.656 14.2 34.656H13.528V35.328V36H13.792L15.712 35.952C16.832 35.936 18.032 35.936 19.312 35.952C20.8 35.984 21.536 36 21.52 36H21.808V35.328V34.656H20.608C19.488 34.64 18.88 34.584 18.784 34.488C18.752 34.472 18.736 33.472 18.736 31.488V28.512H19.864C20.68 28.528 21.128 28.544 21.208 28.56C21.832 28.672 22.248 28.936 22.456 29.352C22.616 29.688 22.704 30.176 22.72 30.816V31.32H23.32H23.92V27.84V24.36H23.32H22.72V24.864C22.704 25.504 22.616 25.992 22.456 26.328C22.248 26.744 21.832 27.008 21.208 27.12C21.128 27.136 20.68 27.152 19.864 27.168H18.736V24.192C18.736 22.208 18.752 21.2 18.784 21.168C18.864 21.088 19.496 21.04 20.68 21.024H21.376C22.752 21.024 23.688 21.112 24.184 21.288C24.552 21.4 24.856 21.56 25.096 21.768C25.736 22.28 26.16 23.376 26.368 25.056C26.4 25.36 26.424 25.536 26.44 25.584V25.68H27.04H27.64V25.584C27.624 25.536 27.512 24.568 27.304 22.68C27.096 20.792 26.984 19.824 26.968 19.776V19.68H20.248H13.528Z" fill="black"/>
</svg>
