<svg width="313" height="121" viewBox="0 0 313 121" fill="none" xmlns="http://www.w3.org/2000/svg">
<path fill-rule="evenodd" clip-rule="evenodd" d="M252.012 0C253.945 0.0716146 255.592 0.78776 256.953 2.14844C258.314 3.4375 259.03 5.04883 259.102 6.98242V24.9219H294.014V6.98242C294.085 4.97721 294.837 3.33008 296.27 2.04102C297.702 0.680339 299.421 0 301.426 0C303.359 0.0716146 305.007 0.78776 306.367 2.14844C307.728 3.4375 308.444 5.04883 308.516 6.98242V59.6191C308.086 63.916 305.723 66.2435 301.426 66.6016C299.421 66.6016 297.666 65.957 296.162 64.668C294.73 63.3073 294.014 61.6243 294.014 59.6191V39.3164H259.102V59.6191C258.672 63.916 256.309 66.2435 252.012 66.6016C250.007 66.6016 248.252 65.957 246.748 64.668C245.316 63.3073 244.6 61.6243 244.6 59.6191V6.98242C244.671 4.97721 245.423 3.33008 246.855 2.04102C248.288 0.680339 250.007 0 252.012 0ZM184.98 19.2285C183.19 21.1621 181.901 23.3822 181.113 25.8887C180.326 28.3236 179.932 30.8301 179.932 33.4082C179.932 35.9863 180.29 38.5286 181.006 41.0352C181.794 43.5417 183.118 45.7617 184.98 47.6953C186.842 49.5573 189.134 50.5599 191.855 50.7031H227.305C231.816 51.1328 234.287 53.6035 234.717 58.1152C234.645 60.1204 233.893 61.8034 232.461 63.1641C231.029 64.4531 229.31 65.0977 227.305 65.0977H193.037H188.096C183.083 64.8112 178.965 62.9134 175.742 59.4043C172.52 55.8236 170.192 51.7773 168.76 47.2656C167.399 42.7539 166.719 38.1348 166.719 33.4082C166.719 29.8991 167.113 26.4258 167.9 22.9883C168.445 20.611 169.195 18.3193 170.151 16.1133H111.826C109.105 16.2565 106.849 17.2949 105.059 19.2285C103.268 21.1621 101.943 23.3822 101.084 25.8887C100.296 28.3236 99.9023 30.8301 99.9023 33.4082C99.9023 35.9863 100.296 38.5286 101.084 41.0352C101.943 43.4701 103.268 45.6543 105.059 47.5879C106.849 49.5215 109.105 50.5599 111.826 50.7031H149.639C151.644 50.7747 153.291 51.5267 154.58 52.959C155.941 54.3913 156.621 56.11 156.621 58.1152C156.549 60.0488 155.833 61.696 154.473 63.0566C153.184 64.3457 151.572 65.026 149.639 65.0977H110.215H108.174C103.161 64.8112 99.0072 62.9134 95.7129 59.4043C92.4902 55.8236 90.1628 51.7773 88.7305 47.2656C87.3698 42.7539 86.6895 38.1348 86.6895 33.4082C86.6895 28.6816 87.4056 24.0625 88.8379 19.5508C90.2702 15.0391 92.5977 11.0286 95.8203 7.51953C99.043 3.9388 103.161 2.00521 108.174 1.71875H113.115H188.096H190.137H197.639H227.305C231.816 2.14844 234.287 4.61914 234.717 9.13086C234.717 11.1361 233.965 12.819 232.461 14.1797C231.029 15.4688 229.31 16.1133 227.305 16.1133H197.639H191.855C189.134 16.2565 186.842 17.2949 184.98 19.2285ZM154.258 38.0273C155.69 36.6667 156.406 34.9837 156.406 32.9785C156.406 30.9733 155.69 29.2904 154.258 27.9297C152.897 26.4974 151.214 25.7812 149.209 25.7812H116.768C114.762 25.7812 113.044 26.4616 111.611 27.8223C110.251 29.2546 109.57 30.9733 109.57 32.9785C109.57 34.9837 110.251 36.7025 111.611 38.1348C113.044 39.4954 114.762 40.1758 116.768 40.1758H149.209C151.214 40.1758 152.897 39.4596 154.258 38.0273ZM0 8.91602C0 6.91081 0.680339 5.22786 2.04102 3.86719C3.47331 2.4349 5.19206 1.71875 7.19727 1.71875H69.7168C71.722 1.71875 73.4408 2.39909 74.873 3.75977C76.2337 5.19206 76.9141 6.91081 76.9141 8.91602C76.9141 10.9212 76.1979 12.64 74.7656 14.0723C73.4049 15.4329 71.722 16.1133 69.7168 16.1133H45.7617V59.6191C45.332 63.916 42.9688 66.2435 38.6719 66.6016C36.6667 66.6016 34.9121 65.957 33.4082 64.668C31.9759 63.3073 31.2598 61.6243 31.2598 59.6191V16.1133H7.19727C5.19206 16.1133 3.50911 15.3971 2.14844 13.9648C0.716146 12.6042 0 10.9212 0 8.91602ZM280.569 73.0625H276.976C273.33 73.2708 270.335 74.6771 267.991 77.2812C265.647 79.8333 263.955 82.75 262.913 86.0312C261.871 89.3125 261.351 92.6719 261.351 96.1094C261.351 99.5469 261.845 102.906 262.835 106.188C263.107 107.044 263.423 107.877 263.784 108.688H231.976C230.049 108.688 228.46 108.062 227.21 106.812C225.908 105.562 225.049 103.635 224.632 101.031H238.382C242.028 100.927 245.022 100.094 247.366 98.5312C249.762 96.9688 251.455 95.1979 252.444 93.2188C253.486 91.1875 254.007 89.1302 254.007 87.0469C254.007 85.0156 253.486 83.0104 252.444 81.0312C251.403 79 249.71 77.2031 247.366 75.6406C245.022 74.0781 242.028 73.2448 238.382 73.1406H237.913C237.601 73.0885 237.288 73.0625 236.976 73.0625H217.679H208.069H204.241C202.783 73.0625 201.533 73.5573 200.491 74.5469C199.45 75.4844 198.903 76.6823 198.851 78.1406V115.172C198.851 116.63 199.371 117.854 200.413 118.844C201.507 119.781 202.783 120.25 204.241 120.25C207.366 119.99 209.085 118.297 209.397 115.172V85.5625C209.397 84.2604 210.075 83.5833 211.429 83.5312H217.679H238.851C239.84 83.5833 240.647 83.8177 241.272 84.2344C241.95 84.599 242.444 85.0417 242.757 85.5625C243.069 86.0312 243.226 86.526 243.226 87.0469C243.226 87.5677 243.069 88.0885 242.757 88.6094C242.444 89.0781 241.95 89.5208 241.272 89.9375C240.647 90.3021 239.84 90.5104 238.851 90.5625H218.226C216.767 90.5625 215.517 91.0833 214.476 92.125C213.486 93.1146 212.991 94.3385 212.991 95.7969C212.991 96.3698 213.46 99 214.397 103.688C215.075 107.906 216.976 111.552 220.101 114.625C223.226 117.698 226.715 119.208 230.569 119.156H276.851L276.887 119.155L276.923 119.153L276.976 119.156H278.46H307.132C308.538 119.104 309.71 118.609 310.647 117.672C311.637 116.682 312.158 115.484 312.21 114.078C312.21 112.62 311.715 111.37 310.726 110.328C309.788 109.286 308.59 108.74 307.132 108.688H279.632C277.653 108.583 276.012 107.828 274.71 106.422C273.408 105.016 272.444 103.427 271.819 101.656C271.246 99.8333 270.96 97.9844 270.96 96.1094C270.96 94.2344 271.246 92.4115 271.819 90.6406C272.444 88.8177 273.408 87.2031 274.71 85.7969C276.012 84.3906 277.653 83.6354 279.632 83.5312H307.132C310.257 83.2708 311.95 81.5781 312.21 78.4531C312.21 76.9948 311.715 75.7448 310.726 74.7031C309.788 73.6615 308.59 73.1146 307.132 73.0625H280.569ZM310.491 99.4688C311.533 98.4792 312.054 97.2552 312.054 95.7969C312.054 94.3385 311.533 93.1146 310.491 92.125C309.502 91.0833 308.278 90.5625 306.819 90.5625H283.226C281.767 90.5625 280.517 91.0573 279.476 92.0469C278.486 93.0885 277.991 94.3385 277.991 95.7969C277.991 97.2552 278.486 98.5052 279.476 99.5469C280.517 100.536 281.767 101.031 283.226 101.031H306.819C308.278 101.031 309.502 100.51 310.491 99.4688ZM181.507 75.5625C179.424 73.9479 177.054 73.1146 174.397 73.0625H172.913H148.616H147.132C143.486 73.2188 140.439 74.599 137.991 77.2031C135.595 79.7552 133.877 82.6979 132.835 86.0312C131.793 89.3125 131.272 92.6719 131.272 96.1094C131.272 99.5469 131.767 102.932 132.757 106.266C133.799 109.599 135.543 112.542 137.991 115.094C140.439 117.646 143.486 119 147.132 119.156H174.397C178.043 118.948 181.064 117.568 183.46 115.016C185.908 112.464 187.653 109.547 188.694 106.266C189.788 102.932 190.335 99.5469 190.335 96.1094C190.335 93.5052 190.022 90.9531 189.397 88.4531C188.772 85.9531 187.809 83.5833 186.507 81.3438C185.257 79.1042 183.59 77.1771 181.507 75.5625ZM176.663 106.5C175.361 107.854 173.72 108.583 171.741 108.688H149.554C147.575 108.583 145.908 107.854 144.554 106.5C143.252 105.094 142.314 103.479 141.741 101.656C141.168 99.8333 140.882 97.9844 140.882 96.1094C140.882 94.2344 141.168 92.4115 141.741 90.6406C142.366 88.8177 143.33 87.2031 144.632 85.7969C145.934 84.3906 147.575 83.6354 149.554 83.5312H171.741C173.72 83.6354 175.361 84.3906 176.663 85.7969C177.965 87.2031 178.903 88.8177 179.476 90.6406C180.101 92.4115 180.413 94.2344 180.413 96.1094C180.413 97.9844 180.127 99.8333 179.554 101.656C178.981 103.479 178.017 105.094 176.663 106.5ZM49.5381 73.0625H25.1006C24.7881 73.0625 24.4756 73.0885 24.1631 73.1406H23.6943C20.0485 73.2448 17.0537 74.0781 14.71 75.6406C12.3662 77.2031 10.6735 79 9.63184 81.0312C8.59017 83.0104 8.06934 85.0156 8.06934 87.0469C8.06934 89.1302 8.56413 91.1875 9.55371 93.2188C10.5954 95.1979 12.2881 96.9688 14.6318 98.5312C17.0277 100.094 20.0485 100.927 23.6943 101.031H45.8818C46.8714 101.083 47.6787 101.318 48.3037 101.734C48.9808 102.151 49.4756 102.698 49.7881 103.375C50.1006 104 50.2568 104.495 50.2568 104.859C50.2568 105.432 50.1006 106.005 49.7881 106.578C49.4756 107.099 48.9808 107.568 48.3037 107.984C47.6787 108.401 46.8714 108.583 45.8818 108.531H14.4756C13.0173 108.531 11.7933 109.052 10.8037 110.094C9.76204 111.083 9.24121 112.307 9.24121 113.766C9.24121 115.224 9.736 116.474 10.7256 117.516C11.7673 118.505 13.0173 119 14.4756 119H44.0068C44.3193 119 44.6318 118.974 44.9443 118.922H45.4131C49.0589 118.922 52.0537 118.141 54.3975 116.578C56.7412 114.964 58.4339 113.141 59.4756 111.109C60.5173 109.026 61.0381 106.943 61.0381 104.859C61.0381 102.724 60.5173 100.641 59.4756 98.6094C58.486 96.526 56.7933 94.7031 54.3975 93.1406C52.0537 91.526 49.0589 90.6667 45.4131 90.5625H23.2256C22.236 90.5104 21.4027 90.3021 20.7256 89.9375C20.1006 89.5208 19.6318 89.0781 19.3193 88.6094C19.0068 88.0885 18.8506 87.5677 18.8506 87.0469C18.8506 86.526 19.0068 86.0312 19.3193 85.5625C19.6318 85.0417 20.1006 84.599 20.7256 84.2344C21.4027 83.8177 22.236 83.5833 23.2256 83.5312H49.5381H54.4756H91.0381V115.172C91.0381 116.63 91.5589 117.854 92.6006 118.844C93.6943 119.781 94.9704 120.25 96.4287 120.25C99.5537 119.99 101.272 118.297 101.585 115.172V83.5312H120.007C121.465 83.5312 122.689 83.0365 123.679 82.0469C124.462 81.264 124.385 80.3633 124.299 79.3451C124.271 79.0085 124.241 78.6591 124.241 78.2969C124.241 77.9142 124.276 77.5458 124.309 77.1918C124.403 76.1968 124.487 75.3152 123.757 74.5469C122.715 73.5573 121.465 73.0625 120.007 73.0625H54.4756H49.5381Z" fill="black"/>
</svg>
